<?xml version="1.0" encoding="UTF-8" ?>
<svg version="1.1" width="32" height="48" xmlns="http://www.w3.org/2000/svg" shape-rendering="crispEdges">
<rect x="10" y="21" width="1" height="1" fill="#222034" />
<rect x="11" y="21" width="1" height="1" fill="#222034" />
<rect x="12" y="21" width="1" height="1" fill="#222034" />
<rect x="13" y="21" width="1" height="1" fill="#222034" />
<rect x="14" y="21" width="1" height="1" fill="#222034" />
<rect x="15" y="21" width="1" height="1" fill="#222034" />
<rect x="16" y="21" width="1" height="1" fill="#222034" />
<rect x="17" y="21" width="1" height="1" fill="#222034" />
<rect x="18" y="21" width="1" height="1" fill="#222034" />
<rect x="19" y="21" width="1" height="1" fill="#222034" />
<rect x="20" y="21" width="1" height="1" fill="#222034" />
<rect x="21" y="21" width="1" height="1" fill="#222034" />
<rect x="5" y="22" width="1" height="1" fill="#222034" />
<rect x="6" y="22" width="1" height="1" fill="#222034" />
<rect x="7" y="22" width="1" height="1" fill="#222034" />
<rect x="8" y="22" width="1" height="1" fill="#222034" />
<rect x="9" y="22" width="1" height="1" fill="#222034" />
<rect x="10" y="22" width="1" height="1" fill="#222034" />
<rect x="14" y="22" width="1" height="1" fill="#222034" />
<rect x="18" y="22" width="1" height="1" fill="#222034" />
<rect x="22" y="22" width="1" height="1" fill="#222034" />
<rect x="23" y="22" width="1" height="1" fill="#222034" />
<rect x="24" y="22" width="1" height="1" fill="#222034" />
<rect x="25" y="22" width="1" height="1" fill="#222034" />
<rect x="26" y="22" width="1" height="1" fill="#222034" />
<rect x="10" y="23" width="1" height="1" fill="#222034" />
<rect x="14" y="23" width="1" height="1" fill="#222034" />
<rect x="18" y="23" width="1" height="1" fill="#222034" />
<rect x="22" y="23" width="1" height="1" fill="#222034" />
<rect x="10" y="24" width="1" height="1" fill="#222034" />
<rect x="14" y="24" width="1" height="1" fill="#222034" />
<rect x="18" y="24" width="1" height="1" fill="#222034" />
<rect x="22" y="24" width="1" height="1" fill="#222034" />
<rect x="10" y="25" width="1" height="1" fill="#222034" />
<rect x="11" y="25" width="1" height="1" fill="#222034" />
<rect x="12" y="25" width="1" height="1" fill="#222034" />
<rect x="13" y="25" width="1" height="1" fill="#222034" />
<rect x="19" y="25" width="1" height="1" fill="#222034" />
<rect x="20" y="25" width="1" height="1" fill="#222034" />
<rect x="21" y="25" width="1" height="1" fill="#222034" />
<rect x="22" y="25" width="1" height="1" fill="#222034" />
</svg>