<?xml version="1.0" encoding="UTF-8" ?>
<svg version="1.1" width="32" height="48" xmlns="http://www.w3.org/2000/svg" shape-rendering="crispEdges">
<rect x="12" y="37" width="1" height="1" fill="#222034" />
<rect x="13" y="37" width="1" height="1" fill="#222034" />
<rect x="14" y="37" width="1" height="1" fill="#222034" />
<rect x="15" y="37" width="1" height="1" fill="#222034" />
<rect x="16" y="37" width="1" height="1" fill="#222034" />
<rect x="17" y="37" width="1" height="1" fill="#222034" />
<rect x="18" y="37" width="1" height="1" fill="#222034" />
<rect x="10" y="38" width="1" height="1" fill="#222034" />
<rect x="11" y="38" width="1" height="1" fill="#222034" />
<rect x="12" y="38" width="1" height="1" fill="#222034" />
<rect x="18" y="38" width="1" height="1" fill="#222034" />
<rect x="19" y="38" width="1" height="1" fill="#222034" />
<rect x="20" y="38" width="1" height="1" fill="#222034" />
<rect x="21" y="38" width="1" height="1" fill="#222034" />
<rect x="7" y="39" width="1" height="1" fill="#222034" />
<rect x="8" y="39" width="1" height="1" fill="#222034" />
<rect x="9" y="39" width="1" height="1" fill="#222034" />
<rect x="10" y="39" width="1" height="1" fill="#222034" />
<rect x="21" y="39" width="1" height="1" fill="#222034" />
<rect x="22" y="39" width="1" height="1" fill="#222034" />
<rect x="23" y="39" width="1" height="1" fill="#222034" />
<rect x="24" y="39" width="1" height="1" fill="#222034" />
<rect x="5" y="40" width="1" height="1" fill="#222034" />
<rect x="6" y="40" width="1" height="1" fill="#222034" />
<rect x="7" y="40" width="1" height="1" fill="#AC3232" />
<rect x="8" y="40" width="1" height="1" fill="#AC3232" />
<rect x="9" y="40" width="1" height="1" fill="#AC3232" />
<rect x="10" y="40" width="1" height="1" fill="#222034" />
<rect x="21" y="40" width="1" height="1" fill="#222034" />
<rect x="22" y="40" width="1" height="1" fill="#AC3232" />
<rect x="23" y="40" width="1" height="1" fill="#AC3232" />
<rect x="24" y="40" width="1" height="1" fill="#AC3232" />
<rect x="25" y="40" width="1" height="1" fill="#222034" />
<rect x="26" y="40" width="1" height="1" fill="#222034" />
<rect x="3" y="41" width="1" height="1" fill="#222034" />
<rect x="4" y="41" width="1" height="1" fill="#222034" />
<rect x="5" y="41" width="1" height="1" fill="#AC3232" />
<rect x="6" y="41" width="1" height="1" fill="#AC3232" />
<rect x="7" y="41" width="1" height="1" fill="#AC3232" />
<rect x="8" y="41" width="1" height="1" fill="#AC3232" />
<rect x="9" y="41" width="1" height="1" fill="#AC3232" />
<rect x="10" y="41" width="1" height="1" fill="#222034" />
<rect x="11" y="41" width="1" height="1" fill="#222034" />
<rect x="20" y="41" width="1" height="1" fill="#222034" />
<rect x="21" y="41" width="1" height="1" fill="#222034" />
<rect x="22" y="41" width="1" height="1" fill="#AC3232" />
<rect x="23" y="41" width="1" height="1" fill="#AC3232" />
<rect x="24" y="41" width="1" height="1" fill="#AC3232" />
<rect x="25" y="41" width="1" height="1" fill="#AC3232" />
<rect x="26" y="41" width="1" height="1" fill="#AC3232" />
<rect x="27" y="41" width="1" height="1" fill="#222034" />
<rect x="28" y="41" width="1" height="1" fill="#222034" />
<rect x="2" y="42" width="1" height="1" fill="#222034" />
<rect x="3" y="42" width="1" height="1" fill="#AC3232" />
<rect x="4" y="42" width="1" height="1" fill="#AC3232" />
<rect x="5" y="42" width="1" height="1" fill="#AC3232" />
<rect x="6" y="42" width="1" height="1" fill="#AC3232" />
<rect x="7" y="42" width="1" height="1" fill="#AC3232" />
<rect x="8" y="42" width="1" height="1" fill="#AC3232" />
<rect x="9" y="42" width="1" height="1" fill="#AC3232" />
<rect x="10" y="42" width="1" height="1" fill="#AC3232" />
<rect x="11" y="42" width="1" height="1" fill="#222034" />
<rect x="12" y="42" width="1" height="1" fill="#222034" />
<rect x="19" y="42" width="1" height="1" fill="#222034" />
<rect x="20" y="42" width="1" height="1" fill="#222034" />
<rect x="21" y="42" width="1" height="1" fill="#AC3232" />
<rect x="22" y="42" width="1" height="1" fill="#AC3232" />
<rect x="23" y="42" width="1" height="1" fill="#AC3232" />
<rect x="24" y="42" width="1" height="1" fill="#AC3232" />
<rect x="25" y="42" width="1" height="1" fill="#AC3232" />
<rect x="26" y="42" width="1" height="1" fill="#AC3232" />
<rect x="27" y="42" width="1" height="1" fill="#AC3232" />
<rect x="28" y="42" width="1" height="1" fill="#AC3232" />
<rect x="29" y="42" width="1" height="1" fill="#222034" />
<rect x="1" y="43" width="1" height="1" fill="#222034" />
<rect x="2" y="43" width="1" height="1" fill="#AC3232" />
<rect x="3" y="43" width="1" height="1" fill="#AC3232" />
<rect x="4" y="43" width="1" height="1" fill="#AC3232" />
<rect x="5" y="43" width="1" height="1" fill="#AC3232" />
<rect x="6" y="43" width="1" height="1" fill="#AC3232" />
<rect x="7" y="43" width="1" height="1" fill="#AC3232" />
<rect x="8" y="43" width="1" height="1" fill="#AC3232" />
<rect x="9" y="43" width="1" height="1" fill="#AC3232" />
<rect x="10" y="43" width="1" height="1" fill="#AC3232" />
<rect x="11" y="43" width="1" height="1" fill="#AC3232" />
<rect x="12" y="43" width="1" height="1" fill="#222034" />
<rect x="13" y="43" width="1" height="1" fill="#222034" />
<rect x="14" y="43" width="1" height="1" fill="#222034" />
<rect x="15" y="43" width="1" height="1" fill="#222034" />
<rect x="16" y="43" width="1" height="1" fill="#222034" />
<rect x="17" y="43" width="1" height="1" fill="#222034" />
<rect x="18" y="43" width="1" height="1" fill="#222034" />
<rect x="19" y="43" width="1" height="1" fill="#222034" />
<rect x="20" y="43" width="1" height="1" fill="#AC3232" />
<rect x="21" y="43" width="1" height="1" fill="#AC3232" />
<rect x="22" y="43" width="1" height="1" fill="#AC3232" />
<rect x="23" y="43" width="1" height="1" fill="#AC3232" />
<rect x="24" y="43" width="1" height="1" fill="#AC3232" />
<rect x="25" y="43" width="1" height="1" fill="#AC3232" />
<rect x="26" y="43" width="1" height="1" fill="#AC3232" />
<rect x="27" y="43" width="1" height="1" fill="#AC3232" />
<rect x="28" y="43" width="1" height="1" fill="#AC3232" />
<rect x="29" y="43" width="1" height="1" fill="#AC3232" />
<rect x="30" y="43" width="1" height="1" fill="#222034" />
<rect x="1" y="44" width="1" height="1" fill="#222034" />
<rect x="2" y="44" width="1" height="1" fill="#AC3232" />
<rect x="3" y="44" width="1" height="1" fill="#AC3232" />
<rect x="4" y="44" width="1" height="1" fill="#AC3232" />
<rect x="5" y="44" width="1" height="1" fill="#AC3232" />
<rect x="6" y="44" width="1" height="1" fill="#AC3232" />
<rect x="7" y="44" width="1" height="1" fill="#AC3232" />
<rect x="8" y="44" width="1" height="1" fill="#AC3232" />
<rect x="9" y="44" width="1" height="1" fill="#AC3232" />
<rect x="10" y="44" width="1" height="1" fill="#AC3232" />
<rect x="11" y="44" width="1" height="1" fill="#AC3232" />
<rect x="12" y="44" width="1" height="1" fill="#AC3232" />
<rect x="13" y="44" width="1" height="1" fill="#AC3232" />
<rect x="14" y="44" width="1" height="1" fill="#AC3232" />
<rect x="15" y="44" width="1" height="1" fill="#AC3232" />
<rect x="16" y="44" width="1" height="1" fill="#AC3232" />
<rect x="17" y="44" width="1" height="1" fill="#AC3232" />
<rect x="18" y="44" width="1" height="1" fill="#AC3232" />
<rect x="19" y="44" width="1" height="1" fill="#AC3232" />
<rect x="20" y="44" width="1" height="1" fill="#AC3232" />
<rect x="21" y="44" width="1" height="1" fill="#AC3232" />
<rect x="22" y="44" width="1" height="1" fill="#AC3232" />
<rect x="23" y="44" width="1" height="1" fill="#AC3232" />
<rect x="24" y="44" width="1" height="1" fill="#AC3232" />
<rect x="25" y="44" width="1" height="1" fill="#AC3232" />
<rect x="26" y="44" width="1" height="1" fill="#AC3232" />
<rect x="27" y="44" width="1" height="1" fill="#AC3232" />
<rect x="28" y="44" width="1" height="1" fill="#AC3232" />
<rect x="29" y="44" width="1" height="1" fill="#AC3232" />
<rect x="30" y="44" width="1" height="1" fill="#222034" />
<rect x="0" y="45" width="1" height="1" fill="#222034" />
<rect x="1" y="45" width="1" height="1" fill="#AC3232" />
<rect x="2" y="45" width="1" height="1" fill="#AC3232" />
<rect x="3" y="45" width="1" height="1" fill="#AC3232" />
<rect x="4" y="45" width="1" height="1" fill="#AC3232" />
<rect x="5" y="45" width="1" height="1" fill="#AC3232" />
<rect x="6" y="45" width="1" height="1" fill="#AC3232" />
<rect x="7" y="45" width="1" height="1" fill="#AC3232" />
<rect x="8" y="45" width="1" height="1" fill="#AC3232" />
<rect x="9" y="45" width="1" height="1" fill="#AC3232" />
<rect x="10" y="45" width="1" height="1" fill="#AC3232" />
<rect x="11" y="45" width="1" height="1" fill="#AC3232" />
<rect x="12" y="45" width="1" height="1" fill="#AC3232" />
<rect x="13" y="45" width="1" height="1" fill="#AC3232" />
<rect x="14" y="45" width="1" height="1" fill="#AC3232" />
<rect x="15" y="45" width="1" height="1" fill="#AC3232" />
<rect x="16" y="45" width="1" height="1" fill="#AC3232" />
<rect x="17" y="45" width="1" height="1" fill="#AC3232" />
<rect x="18" y="45" width="1" height="1" fill="#AC3232" />
<rect x="19" y="45" width="1" height="1" fill="#AC3232" />
<rect x="20" y="45" width="1" height="1" fill="#AC3232" />
<rect x="21" y="45" width="1" height="1" fill="#AC3232" />
<rect x="22" y="45" width="1" height="1" fill="#AC3232" />
<rect x="23" y="45" width="1" height="1" fill="#AC3232" />
<rect x="24" y="45" width="1" height="1" fill="#AC3232" />
<rect x="25" y="45" width="1" height="1" fill="#AC3232" />
<rect x="26" y="45" width="1" height="1" fill="#AC3232" />
<rect x="27" y="45" width="1" height="1" fill="#AC3232" />
<rect x="28" y="45" width="1" height="1" fill="#AC3232" />
<rect x="29" y="45" width="1" height="1" fill="#AC3232" />
<rect x="30" y="45" width="1" height="1" fill="#AC3232" />
<rect x="31" y="45" width="1" height="1" fill="#222034" />
<rect x="0" y="46" width="1" height="1" fill="#222034" />
<rect x="1" y="46" width="1" height="1" fill="#AC3232" />
<rect x="2" y="46" width="1" height="1" fill="#AC3232" />
<rect x="3" y="46" width="1" height="1" fill="#AC3232" />
<rect x="4" y="46" width="1" height="1" fill="#AC3232" />
<rect x="5" y="46" width="1" height="1" fill="#AC3232" />
<rect x="6" y="46" width="1" height="1" fill="#AC3232" />
<rect x="7" y="46" width="1" height="1" fill="#AC3232" />
<rect x="8" y="46" width="1" height="1" fill="#AC3232" />
<rect x="9" y="46" width="1" height="1" fill="#AC3232" />
<rect x="10" y="46" width="1" height="1" fill="#AC3232" />
<rect x="11" y="46" width="1" height="1" fill="#AC3232" />
<rect x="12" y="46" width="1" height="1" fill="#AC3232" />
<rect x="13" y="46" width="1" height="1" fill="#AC3232" />
<rect x="14" y="46" width="1" height="1" fill="#AC3232" />
<rect x="15" y="46" width="1" height="1" fill="#AC3232" />
<rect x="16" y="46" width="1" height="1" fill="#AC3232" />
<rect x="17" y="46" width="1" height="1" fill="#AC3232" />
<rect x="18" y="46" width="1" height="1" fill="#AC3232" />
<rect x="19" y="46" width="1" height="1" fill="#AC3232" />
<rect x="20" y="46" width="1" height="1" fill="#AC3232" />
<rect x="21" y="46" width="1" height="1" fill="#AC3232" />
<rect x="22" y="46" width="1" height="1" fill="#AC3232" />
<rect x="23" y="46" width="1" height="1" fill="#AC3232" />
<rect x="24" y="46" width="1" height="1" fill="#AC3232" />
<rect x="25" y="46" width="1" height="1" fill="#AC3232" />
<rect x="26" y="46" width="1" height="1" fill="#AC3232" />
<rect x="27" y="46" width="1" height="1" fill="#AC3232" />
<rect x="28" y="46" width="1" height="1" fill="#AC3232" />
<rect x="29" y="46" width="1" height="1" fill="#AC3232" />
<rect x="30" y="46" width="1" height="1" fill="#AC3232" />
<rect x="31" y="46" width="1" height="1" fill="#222034" />
<rect x="0" y="47" width="1" height="1" fill="#222034" />
<rect x="1" y="47" width="1" height="1" fill="#222034" />
<rect x="2" y="47" width="1" height="1" fill="#222034" />
<rect x="3" y="47" width="1" height="1" fill="#222034" />
<rect x="4" y="47" width="1" height="1" fill="#222034" />
<rect x="5" y="47" width="1" height="1" fill="#222034" />
<rect x="6" y="47" width="1" height="1" fill="#222034" />
<rect x="7" y="47" width="1" height="1" fill="#222034" />
<rect x="8" y="47" width="1" height="1" fill="#222034" />
<rect x="9" y="47" width="1" height="1" fill="#222034" />
<rect x="10" y="47" width="1" height="1" fill="#222034" />
<rect x="11" y="47" width="1" height="1" fill="#222034" />
<rect x="12" y="47" width="1" height="1" fill="#222034" />
<rect x="13" y="47" width="1" height="1" fill="#222034" />
<rect x="14" y="47" width="1" height="1" fill="#222034" />
<rect x="15" y="47" width="1" height="1" fill="#222034" />
<rect x="16" y="47" width="1" height="1" fill="#222034" />
<rect x="17" y="47" width="1" height="1" fill="#222034" />
<rect x="18" y="47" width="1" height="1" fill="#222034" />
<rect x="19" y="47" width="1" height="1" fill="#222034" />
<rect x="20" y="47" width="1" height="1" fill="#222034" />
<rect x="21" y="47" width="1" height="1" fill="#222034" />
<rect x="22" y="47" width="1" height="1" fill="#222034" />
<rect x="23" y="47" width="1" height="1" fill="#222034" />
<rect x="24" y="47" width="1" height="1" fill="#222034" />
<rect x="25" y="47" width="1" height="1" fill="#222034" />
<rect x="26" y="47" width="1" height="1" fill="#222034" />
<rect x="27" y="47" width="1" height="1" fill="#222034" />
<rect x="28" y="47" width="1" height="1" fill="#222034" />
<rect x="29" y="47" width="1" height="1" fill="#222034" />
<rect x="30" y="47" width="1" height="1" fill="#222034" />
<rect x="31" y="47" width="1" height="1" fill="#222034" />
</svg>