<?xml version="1.0" encoding="UTF-8" ?>
<svg version="1.1" width="32" height="48" xmlns="http://www.w3.org/2000/svg" shape-rendering="crispEdges">
<rect x="12" y="28" width="1" height="1" fill="#222034" />
<rect x="13" y="28" width="1" height="1" fill="#222034" />
<rect x="14" y="28" width="1" height="1" fill="#222034" />
<rect x="15" y="28" width="1" height="1" fill="#222034" />
<rect x="16" y="28" width="1" height="1" fill="#222034" />
<rect x="17" y="28" width="1" height="1" fill="#222034" />
<rect x="18" y="28" width="1" height="1" fill="#222034" />
<rect x="19" y="28" width="1" height="1" fill="#222034" />
<rect x="11" y="29" width="1" height="1" fill="#222034" />
<rect x="20" y="29" width="1" height="1" fill="#222034" />
<rect x="7" y="30" width="1" height="1" fill="#222034" />
<rect x="11" y="30" width="1" height="1" fill="#222034" />
<rect x="20" y="30" width="1" height="1" fill="#222034" />
<rect x="24" y="30" width="1" height="1" fill="#222034" />
<rect x="8" y="31" width="1" height="1" fill="#222034" />
<rect x="9" y="31" width="1" height="1" fill="#222034" />
<rect x="10" y="31" width="1" height="1" fill="#222034" />
<rect x="21" y="31" width="1" height="1" fill="#222034" />
<rect x="22" y="31" width="1" height="1" fill="#222034" />
<rect x="23" y="31" width="1" height="1" fill="#222034" />
<rect x="8" y="32" width="1" height="1" fill="#45283C" />
<rect x="9" y="32" width="1" height="1" fill="#222034" />
<rect x="10" y="32" width="1" height="1" fill="#222034" />
<rect x="11" y="32" width="1" height="1" fill="#222034" />
<rect x="20" y="32" width="1" height="1" fill="#222034" />
<rect x="21" y="32" width="1" height="1" fill="#222034" />
<rect x="22" y="32" width="1" height="1" fill="#222034" />
<rect x="23" y="32" width="1" height="1" fill="#45283C" />
<rect x="9" y="33" width="1" height="1" fill="#45283C" />
<rect x="10" y="33" width="1" height="1" fill="#45283C" />
<rect x="11" y="33" width="1" height="1" fill="#222034" />
<rect x="12" y="33" width="1" height="1" fill="#222034" />
<rect x="19" y="33" width="1" height="1" fill="#222034" />
<rect x="20" y="33" width="1" height="1" fill="#222034" />
<rect x="21" y="33" width="1" height="1" fill="#45283C" />
<rect x="22" y="33" width="1" height="1" fill="#45283C" />
<rect x="11" y="34" width="1" height="1" fill="#45283C" />
<rect x="12" y="34" width="1" height="1" fill="#222034" />
<rect x="13" y="34" width="1" height="1" fill="#222034" />
<rect x="14" y="34" width="1" height="1" fill="#222034" />
<rect x="15" y="34" width="1" height="1" fill="#222034" />
<rect x="16" y="34" width="1" height="1" fill="#222034" />
<rect x="17" y="34" width="1" height="1" fill="#222034" />
<rect x="18" y="34" width="1" height="1" fill="#222034" />
<rect x="19" y="34" width="1" height="1" fill="#222034" />
<rect x="20" y="34" width="1" height="1" fill="#45283C" />
<rect x="12" y="35" width="1" height="1" fill="#45283C" />
<rect x="13" y="35" width="1" height="1" fill="#45283C" />
<rect x="14" y="35" width="1" height="1" fill="#45283C" />
<rect x="15" y="35" width="1" height="1" fill="#45283C" />
<rect x="16" y="35" width="1" height="1" fill="#45283C" />
<rect x="17" y="35" width="1" height="1" fill="#45283C" />
<rect x="18" y="35" width="1" height="1" fill="#45283C" />
<rect x="19" y="35" width="1" height="1" fill="#45283C" />
</svg>